<svg id="visual" viewBox="0 0 900 600" width="900" height="600" xmlns="http://www.w3.org/2000/svg" xmlns:xlink="http://www.w3.org/1999/xlink" version="1.1"><g stroke-width="1" stroke-linejoin="bevel"><path d="M484 312L361 308L461 371Z" fill="#008e9b" stroke="#008e9b"></path><path d="M484 312L420 224L361 308Z" fill="#76c893" stroke="#76c893"></path><path d="M361 308L386 428L461 371Z" fill="#5cbd97" stroke="#5cbd97"></path><path d="M420 224L307 275L361 308Z" fill="#008e9b" stroke="#008e9b"></path><path d="M361 308L322 401L386 428Z" fill="#43b29b" stroke="#43b29b"></path><path d="M307 275L322 401L361 308Z" fill="#008e9b" stroke="#008e9b"></path><path d="M484 312L504 182L420 224Z" fill="#5cbd97" stroke="#5cbd97"></path><path d="M420 224L339 167L307 275Z" fill="#008197" stroke="#008197"></path><path d="M370 121L339 167L420 224Z" fill="#184e77" stroke="#184e77"></path><path d="M473 512L594 377L461 371Z" fill="#76c893" stroke="#76c893"></path><path d="M461 371L594 377L484 312Z" fill="#5cbd97" stroke="#5cbd97"></path><path d="M484 312L632 319L504 182Z" fill="#007592" stroke="#007592"></path><path d="M322 480L362 498L386 428Z" fill="#008e9b" stroke="#008e9b"></path><path d="M386 428L473 512L461 371Z" fill="#129a9d" stroke="#129a9d"></path><path d="M322 401L322 480L386 428Z" fill="#055b82" stroke="#055b82"></path><path d="M227 498L322 480L322 401Z" fill="#008e9b" stroke="#008e9b"></path><path d="M362 498L473 512L386 428Z" fill="#76c893" stroke="#76c893"></path><path d="M462 89L370 121L420 224Z" fill="#008197" stroke="#008197"></path><path d="M594 377L632 319L484 312Z" fill="#184e77" stroke="#184e77"></path><path d="M170 181L208 332L307 275Z" fill="#008e9b" stroke="#008e9b"></path><path d="M307 275L208 332L322 401Z" fill="#008e9b" stroke="#008e9b"></path><path d="M170 181L307 275L339 167Z" fill="#43b29b" stroke="#43b29b"></path><path d="M208 332L202 360L322 401Z" fill="#76c893" stroke="#76c893"></path><path d="M592 73L462 89L504 182Z" fill="#184e77" stroke="#184e77"></path><path d="M504 182L462 89L420 224Z" fill="#00688a" stroke="#00688a"></path><path d="M632 319L622 174L504 182Z" fill="#2ba69d" stroke="#2ba69d"></path><path d="M439 0L313 96L370 121Z" fill="#007592" stroke="#007592"></path><path d="M370 121L313 96L339 167Z" fill="#43b29b" stroke="#43b29b"></path><path d="M322 480L290 600L362 498Z" fill="#184e77" stroke="#184e77"></path><path d="M362 498L435 600L473 512Z" fill="#184e77" stroke="#184e77"></path><path d="M202 360L227 498L322 401Z" fill="#43b29b" stroke="#43b29b"></path><path d="M602 537L675 412L594 377Z" fill="#184e77" stroke="#184e77"></path><path d="M594 377L675 412L632 319Z" fill="#5cbd97" stroke="#5cbd97"></path><path d="M632 319L716 303L622 174Z" fill="#008197" stroke="#008197"></path><path d="M290 600L435 600L362 498Z" fill="#5cbd97" stroke="#5cbd97"></path><path d="M473 512L602 537L594 377Z" fill="#76c893" stroke="#76c893"></path><path d="M460 600L602 537L473 512Z" fill="#184e77" stroke="#184e77"></path><path d="M435 600L460 600L473 512Z" fill="#055b82" stroke="#055b82"></path><path d="M218 97L170 181L339 167Z" fill="#00688a" stroke="#00688a"></path><path d="M208 332L81 264L202 360Z" fill="#76c893" stroke="#76c893"></path><path d="M675 412L716 303L632 319Z" fill="#129a9d" stroke="#129a9d"></path><path d="M678 69L592 73L622 174Z" fill="#184e77" stroke="#184e77"></path><path d="M622 174L592 73L504 182Z" fill="#5cbd97" stroke="#5cbd97"></path><path d="M462 89L439 0L370 121Z" fill="#5cbd97" stroke="#5cbd97"></path><path d="M299 0L218 97L313 96Z" fill="#184e77" stroke="#184e77"></path><path d="M313 96L218 97L339 167Z" fill="#00688a" stroke="#00688a"></path><path d="M227 498L290 600L322 480Z" fill="#2ba69d" stroke="#2ba69d"></path><path d="M602 537L681 512L675 412Z" fill="#76c893" stroke="#76c893"></path><path d="M675 412L807 405L716 303Z" fill="#007592" stroke="#007592"></path><path d="M612 600L681 512L602 537Z" fill="#00688a" stroke="#00688a"></path><path d="M516 0L439 0L462 89Z" fill="#008197" stroke="#008197"></path><path d="M716 303L722 185L622 174Z" fill="#129a9d" stroke="#129a9d"></path><path d="M592 73L516 0L462 89Z" fill="#129a9d" stroke="#129a9d"></path><path d="M571 0L516 0L592 73Z" fill="#007592" stroke="#007592"></path><path d="M460 600L612 600L602 537Z" fill="#055b82" stroke="#055b82"></path><path d="M218 97L116 174L170 181Z" fill="#184e77" stroke="#184e77"></path><path d="M170 181L81 264L208 332Z" fill="#76c893" stroke="#76c893"></path><path d="M79 539L225 600L227 498Z" fill="#43b29b" stroke="#43b29b"></path><path d="M60 432L227 498L202 360Z" fill="#055b82" stroke="#055b82"></path><path d="M227 498L225 600L290 600Z" fill="#184e77" stroke="#184e77"></path><path d="M439 0L299 0L313 96Z" fill="#184e77" stroke="#184e77"></path><path d="M218 97L102 65L116 174Z" fill="#008e9b" stroke="#008e9b"></path><path d="M116 174L81 264L170 181Z" fill="#008e9b" stroke="#008e9b"></path><path d="M678 69L571 0L592 73Z" fill="#007592" stroke="#007592"></path><path d="M722 185L678 69L622 174Z" fill="#008e9b" stroke="#008e9b"></path><path d="M81 264L60 432L202 360Z" fill="#76c893" stroke="#76c893"></path><path d="M612 600L697 600L681 512Z" fill="#00688a" stroke="#00688a"></path><path d="M681 512L807 405L675 412Z" fill="#5cbd97" stroke="#5cbd97"></path><path d="M829 513L807 405L681 512Z" fill="#00688a" stroke="#00688a"></path><path d="M716 303L831 214L722 185Z" fill="#5cbd97" stroke="#5cbd97"></path><path d="M722 185L807 106L678 69Z" fill="#129a9d" stroke="#129a9d"></path><path d="M60 432L79 539L227 498Z" fill="#129a9d" stroke="#129a9d"></path><path d="M165 0L102 65L218 97Z" fill="#007592" stroke="#007592"></path><path d="M0 182L0 296L81 264Z" fill="#007592" stroke="#007592"></path><path d="M81 264L0 368L60 432Z" fill="#008197" stroke="#008197"></path><path d="M299 0L165 0L218 97Z" fill="#76c893" stroke="#76c893"></path><path d="M807 405L835 308L716 303Z" fill="#007592" stroke="#007592"></path><path d="M835 308L831 214L716 303Z" fill="#5cbd97" stroke="#5cbd97"></path><path d="M0 182L81 264L116 174Z" fill="#43b29b" stroke="#43b29b"></path><path d="M60 432L0 467L79 539Z" fill="#2ba69d" stroke="#2ba69d"></path><path d="M0 296L0 368L81 264Z" fill="#43b29b" stroke="#43b29b"></path><path d="M697 600L764 600L681 512Z" fill="#43b29b" stroke="#43b29b"></path><path d="M900 417L900 284L835 308Z" fill="#007592" stroke="#007592"></path><path d="M831 214L807 106L722 185Z" fill="#2ba69d" stroke="#2ba69d"></path><path d="M678 69L730 0L571 0Z" fill="#5cbd97" stroke="#5cbd97"></path><path d="M0 117L0 182L116 174Z" fill="#5cbd97" stroke="#5cbd97"></path><path d="M807 106L730 0L678 69Z" fill="#007592" stroke="#007592"></path><path d="M0 368L0 467L60 432Z" fill="#129a9d" stroke="#129a9d"></path><path d="M764 600L829 513L681 512Z" fill="#5cbd97" stroke="#5cbd97"></path><path d="M0 600L68 600L79 539Z" fill="#43b29b" stroke="#43b29b"></path><path d="M79 539L68 600L225 600Z" fill="#2ba69d" stroke="#2ba69d"></path><path d="M165 0L107 0L102 65Z" fill="#00688a" stroke="#00688a"></path><path d="M102 65L0 117L116 174Z" fill="#76c893" stroke="#76c893"></path><path d="M0 0L0 117L102 65Z" fill="#129a9d" stroke="#129a9d"></path><path d="M835 308L900 284L831 214Z" fill="#2ba69d" stroke="#2ba69d"></path><path d="M831 214L900 167L807 106Z" fill="#184e77" stroke="#184e77"></path><path d="M900 417L835 308L807 405Z" fill="#00688a" stroke="#00688a"></path><path d="M829 513L900 417L807 405Z" fill="#43b29b" stroke="#43b29b"></path><path d="M900 0L805 0L807 106Z" fill="#055b82" stroke="#055b82"></path><path d="M807 106L805 0L730 0Z" fill="#008e9b" stroke="#008e9b"></path><path d="M900 284L900 167L831 214Z" fill="#129a9d" stroke="#129a9d"></path><path d="M0 467L0 600L79 539Z" fill="#2ba69d" stroke="#2ba69d"></path><path d="M900 167L900 136L807 106Z" fill="#007592" stroke="#007592"></path><path d="M900 600L900 527L829 513Z" fill="#00688a" stroke="#00688a"></path><path d="M829 513L900 527L900 417Z" fill="#129a9d" stroke="#129a9d"></path><path d="M107 0L0 0L102 65Z" fill="#43b29b" stroke="#43b29b"></path><path d="M764 600L900 600L829 513Z" fill="#055b82" stroke="#055b82"></path><path d="M900 136L900 0L807 106Z" fill="#055b82" stroke="#055b82"></path></g></svg>